<?xml version="1.0" encoding="utf-8"?>
<!-- Generator: Adobe Illustrator 16.0.0, SVG Export Plug-In . SVG Version: 6.00 Build 0)  -->
<!DOCTYPE svg PUBLIC "-//W3C//DTD SVG 1.1//EN" "http://www.w3.org/Graphics/SVG/1.1/DTD/svg11.dtd">
<svg version="1.1" id="Layer_1" xmlns="http://www.w3.org/2000/svg" xmlns:xlink="http://www.w3.org/1999/xlink" x="0px" y="0px"
	 width="248.5px" height="80px" viewBox="-4 -10 248.5 80" enable-background="new -4 -10 248.5 80" xml:space="preserve">
<path fill="#E5E6E6" d="M44.2,70.4l0.2-0.4l14.2-25.5c-1-4-3.2-8.9-0.6-14.3c0.7-2.4,1-5.2,1-7.9c-3.2,0.5-7,0.1-7,0.1
	s-3.2-0.1-4.2-1.4c-0.8-1-1.8-3.9-1.8-3.9s-0.3-0.5-0.7-0.8c-0.5-0.3-1.3-0.3-1.3-0.3s-0.7,0-1.2,0.3c-0.5,0.3-0.7,0.7-0.7,0.7
	s-1.1,3-1.9,3.9c-1,1.3-4.2,1.4-4.2,1.4s-4.1,0.5-7.4-0.1c-0.1,3.1,0.2,5.6,0.9,8.1c2.4,5.6,1.2,9.8,0.1,14.2l14.5,25.9V70.4z
	 M39.1,24.2c0,0,3.3-0.7,4.9-3.4c1.6,2.7,5.3,3.4,5.3,3.4c-2.6,1.6-5,6.7-5,6.7S41.6,25.9,39.1,24.2z M46,49.5c0,0.1,0,0.2,0,0.3
	c-0.1,0.7-0.8,1.3-1.5,1.3c-0.9,0-1.6-0.7-1.6-1.6c0-0.9,0.7-1.6,1.6-1.6c0.8,0,1.4,0.6,1.5,1.3C46,49.3,46,49.4,46,49.5z
	 M42.9,60.3c0-0.9,0.7-1.6,1.6-1.6c0.9,0,1.6,0.7,1.6,1.6s-0.7,1.6-1.6,1.6C43.6,61.9,42.9,61.2,42.9,60.3z"/>
<g>
	<g>
		<defs>
			<path id="SVGID_1_" d="M56.1,40.5c0-0.1,0-0.2,0-0.2l0,0c0-0.2-0.1-0.4-0.1-0.4l-3.3-4.5c-0.9-1.1-2.1-0.3-2.1-0.3l-5.1,3.5
				c-0.4-0.3-0.9-0.4-1.4-0.4c-0.5,0-1,0.2-1.4,0.5l-5.2-3.5c0,0-1.2-0.8-2.1,0.3l-3.3,4.5c0,0-0.1,0.2-0.1,0.4c0,0.1,0,0.2,0,0.2
				l0,0v0c0,0.1,0,0.2,0,0.2c0.1,0.2,0.1,0.4,0.1,0.4l3.3,4.5c0.9,1.1,2.1,0.3,2.1,0.3l5.2-3.5c0.4,0.3,0.9,0.5,1.4,0.5
				c0.5,0,1-0.2,1.3-0.4l5.1,3.5c0,0,1.2,0.8,2.1-0.3l3.3-4.5c0,0,0.1-0.2,0.1-0.4l0,0C56.1,40.7,56.1,40.6,56.1,40.5L56.1,40.5
				L56.1,40.5z"/>
		</defs>
		<use xlink:href="#SVGID_1_"  overflow="visible" fill="#57C4C6"/>
		<clipPath id="SVGID_2_">
			<use xlink:href="#SVGID_1_"  overflow="visible"/>
		</clipPath>
		<g clip-path="url(#SVGID_2_)">
			<path fill="#E5E6E6" d="M34.6,35.3c0,0.3-0.2,0.4-0.4,0.4c-0.2,0-0.4-0.2-0.4-0.4c0-0.2,0.2-0.4,0.4-0.4
				C34.4,34.8,34.6,35,34.6,35.3z"/>
			<path fill="#E5E6E6" d="M34.6,37.4c0,0.2-0.2,0.4-0.4,0.4c-0.2,0-0.4-0.2-0.4-0.4c0-0.3,0.2-0.4,0.4-0.4
				C34.4,36.9,34.6,37.1,34.6,37.4z"/>
			<path fill="#E5E6E6" d="M34.6,39.5c0,0.2-0.2,0.4-0.4,0.4c-0.2,0-0.4-0.2-0.4-0.4S34,39,34.2,39C34.4,39,34.6,39.2,34.6,39.5z"/>
			<path fill="#E5E6E6" d="M34.6,41.6c0,0.3-0.2,0.4-0.4,0.4c-0.2,0-0.4-0.2-0.4-0.4c0-0.2,0.2-0.4,0.4-0.4
				C34.4,41.1,34.6,41.3,34.6,41.6z"/>
			<path fill="#E5E6E6" d="M34.6,43.7c0,0.2-0.2,0.4-0.4,0.4c-0.2,0-0.4-0.2-0.4-0.4c0-0.3,0.2-0.4,0.4-0.4
				C34.4,43.2,34.6,43.4,34.6,43.7z"/>
		</g>
		<g clip-path="url(#SVGID_2_)">
			<path fill="#E5E6E6" d="M38.5,35.7c0,0.2-0.2,0.4-0.4,0.4c-0.2,0-0.4-0.2-0.4-0.4s0.2-0.4,0.4-0.4C38.4,35.3,38.5,35.5,38.5,35.7
				z"/>
			<path fill="#E5E6E6" d="M38.5,37.8c0,0.3-0.2,0.4-0.4,0.4c-0.2,0-0.4-0.2-0.4-0.4c0-0.2,0.2-0.4,0.4-0.4
				C38.4,37.4,38.5,37.6,38.5,37.8z"/>
			<path fill="#E5E6E6" d="M38.5,39.9c0,0.2-0.2,0.4-0.4,0.4c-0.2,0-0.4-0.2-0.4-0.4c0-0.2,0.2-0.4,0.4-0.4
				C38.4,39.5,38.5,39.7,38.5,39.9z"/>
			<path fill="#E5E6E6" d="M38.5,42c0,0.3-0.2,0.4-0.4,0.4c-0.2,0-0.4-0.2-0.4-0.4c0-0.2,0.2-0.4,0.4-0.4
				C38.4,41.6,38.5,41.8,38.5,42z"/>
			<path fill="#E5E6E6" d="M38.5,44.1c0,0.3-0.2,0.4-0.4,0.4c-0.2,0-0.4-0.2-0.4-0.4c0-0.2,0.2-0.4,0.4-0.4
				C38.4,43.7,38.5,43.9,38.5,44.1z"/>
		</g>
		<g clip-path="url(#SVGID_2_)">
			<path fill="#E5E6E6" d="M42.5,35.7c0,0.2-0.2,0.4-0.4,0.4c-0.2,0-0.4-0.2-0.4-0.4s0.2-0.4,0.4-0.4C42.3,35.3,42.5,35.5,42.5,35.7
				z"/>
			<path fill="#E5E6E6" d="M42.5,37.8c0,0.3-0.2,0.4-0.4,0.4c-0.2,0-0.4-0.2-0.4-0.4c0-0.2,0.2-0.4,0.4-0.4
				C42.3,37.4,42.5,37.6,42.5,37.8z"/>
			<path fill="#E5E6E6" d="M42.5,39.9c0,0.2-0.2,0.4-0.4,0.4c-0.2,0-0.4-0.2-0.4-0.4c0-0.2,0.2-0.4,0.4-0.4
				C42.3,39.5,42.5,39.7,42.5,39.9z"/>
			<path fill="#E5E6E6" d="M42.5,42c0,0.3-0.2,0.4-0.4,0.4c-0.2,0-0.4-0.2-0.4-0.4c0-0.2,0.2-0.4,0.4-0.4
				C42.3,41.6,42.5,41.8,42.5,42z"/>
			<path fill="#E5E6E6" d="M42.5,44.1c0,0.3-0.2,0.4-0.4,0.4c-0.2,0-0.4-0.2-0.4-0.4c0-0.2,0.2-0.4,0.4-0.4
				C42.3,43.7,42.5,43.9,42.5,44.1z"/>
		</g>
		<g clip-path="url(#SVGID_2_)">
			<path fill="#E5E6E6" d="M46.4,35.7c0,0.2-0.2,0.4-0.4,0.4c-0.2,0-0.4-0.2-0.4-0.4s0.2-0.4,0.4-0.4C46.2,35.3,46.4,35.5,46.4,35.7
				z"/>
			<path fill="#E5E6E6" d="M46.4,37.8c0,0.3-0.2,0.4-0.4,0.4c-0.2,0-0.4-0.2-0.4-0.4c0-0.2,0.2-0.4,0.4-0.4
				C46.2,37.4,46.4,37.6,46.4,37.8z"/>
			<path fill="#E5E6E6" d="M46.4,39.9c0,0.2-0.2,0.4-0.4,0.4c-0.2,0-0.4-0.2-0.4-0.4c0-0.2,0.2-0.4,0.4-0.4
				C46.2,39.5,46.4,39.7,46.4,39.9z"/>
			<path fill="#E5E6E6" d="M46.4,42c0,0.3-0.2,0.4-0.4,0.4c-0.2,0-0.4-0.2-0.4-0.4c0-0.2,0.2-0.4,0.4-0.4
				C46.2,41.6,46.4,41.8,46.4,42z"/>
			<path fill="#E5E6E6" d="M46.4,44.1c0,0.3-0.2,0.4-0.4,0.4c-0.2,0-0.4-0.2-0.4-0.4c0-0.2,0.2-0.4,0.4-0.4
				C46.2,43.7,46.4,43.9,46.4,44.1z"/>
		</g>
		<g clip-path="url(#SVGID_2_)">
			<path fill="#E5E6E6" d="M50.3,35.7c0,0.2-0.2,0.4-0.4,0.4c-0.2,0-0.4-0.2-0.4-0.4s0.2-0.4,0.4-0.4C50.1,35.3,50.3,35.5,50.3,35.7
				z"/>
			<path fill="#E5E6E6" d="M50.3,37.8c0,0.3-0.2,0.4-0.4,0.4c-0.2,0-0.4-0.2-0.4-0.4c0-0.2,0.2-0.4,0.4-0.4
				C50.1,37.4,50.3,37.6,50.3,37.8z"/>
			<path fill="#E5E6E6" d="M50.3,39.9c0,0.2-0.2,0.4-0.4,0.4c-0.2,0-0.4-0.2-0.4-0.4c0-0.2,0.2-0.4,0.4-0.4
				C50.1,39.5,50.3,39.7,50.3,39.9z"/>
			<path fill="#E5E6E6" d="M50.3,42c0,0.3-0.2,0.4-0.4,0.4c-0.2,0-0.4-0.2-0.4-0.4c0-0.2,0.2-0.4,0.4-0.4
				C50.1,41.6,50.3,41.8,50.3,42z"/>
			<path fill="#E5E6E6" d="M50.3,44.1c0,0.3-0.2,0.4-0.4,0.4c-0.2,0-0.4-0.2-0.4-0.4c0-0.2,0.2-0.4,0.4-0.4
				C50.1,43.7,50.3,43.9,50.3,44.1z"/>
		</g>
		<g clip-path="url(#SVGID_2_)">
			<path fill="#E5E6E6" d="M36.6,36.2c0,0.2-0.2,0.4-0.4,0.4c-0.2,0-0.4-0.2-0.4-0.4c0-0.2,0.2-0.4,0.4-0.4
				C36.4,35.7,36.6,35.9,36.6,36.2z"/>
			<path fill="#E5E6E6" d="M36.6,38.2c0,0.3-0.2,0.4-0.4,0.4c-0.2,0-0.4-0.2-0.4-0.4c0-0.2,0.2-0.4,0.4-0.4
				C36.4,37.8,36.6,38,36.6,38.2z"/>
			<path fill="#E5E6E6" d="M36.6,40.4c0,0.2-0.2,0.4-0.4,0.4c-0.2,0-0.4-0.2-0.4-0.4c0-0.3,0.2-0.4,0.4-0.4
				C36.4,39.9,36.6,40.1,36.6,40.4z"/>
			<path fill="#E5E6E6" d="M36.6,42.4c0,0.2-0.2,0.4-0.4,0.4c-0.2,0-0.4-0.2-0.4-0.4s0.2-0.4,0.4-0.4C36.4,42,36.6,42.2,36.6,42.4z"
				/>
			<path fill="#E5E6E6" d="M36.6,44.5c0,0.3-0.2,0.4-0.4,0.4c-0.2,0-0.4-0.2-0.4-0.4c0-0.2,0.2-0.4,0.4-0.4
				C36.4,44.1,36.6,44.3,36.6,44.5z"/>
		</g>
		<g clip-path="url(#SVGID_2_)">
			<path fill="#E5E6E6" d="M32.7,36.2c0,0.2-0.2,0.4-0.4,0.4c-0.2,0-0.4-0.2-0.4-0.4c0-0.2,0.2-0.4,0.4-0.4
				C32.5,35.7,32.7,35.9,32.7,36.2z"/>
			<path fill="#E5E6E6" d="M32.7,38.2c0,0.3-0.2,0.4-0.4,0.4c-0.2,0-0.4-0.2-0.4-0.4c0-0.2,0.2-0.4,0.4-0.4
				C32.5,37.8,32.7,38,32.7,38.2z"/>
			<path fill="#E5E6E6" d="M32.7,40.4c0,0.2-0.2,0.4-0.4,0.4c-0.2,0-0.4-0.2-0.4-0.4c0-0.3,0.2-0.4,0.4-0.4
				C32.5,39.9,32.7,40.1,32.7,40.4z"/>
			<ellipse fill="#E5E6E6" cx="32.2" cy="42.4" rx="0.4" ry="0.4"/>
			<path fill="#E5E6E6" d="M32.7,44.5c0,0.3-0.2,0.4-0.4,0.4c-0.2,0-0.4-0.2-0.4-0.4c0-0.2,0.2-0.4,0.4-0.4
				C32.5,44.1,32.7,44.3,32.7,44.5z"/>
		</g>
		<g clip-path="url(#SVGID_2_)">
			<path fill="#E5E6E6" d="M40.5,36.2c0,0.2-0.2,0.4-0.4,0.4c-0.2,0-0.4-0.2-0.4-0.4c0-0.2,0.2-0.4,0.4-0.4
				C40.3,35.7,40.5,35.9,40.5,36.2z"/>
			<path fill="#E5E6E6" d="M40.5,38.2c0,0.3-0.2,0.4-0.4,0.4c-0.2,0-0.4-0.2-0.4-0.4c0-0.2,0.2-0.4,0.4-0.4
				C40.3,37.8,40.5,38,40.5,38.2z"/>
			<path fill="#E5E6E6" d="M40.5,40.4c0,0.2-0.2,0.4-0.4,0.4c-0.2,0-0.4-0.2-0.4-0.4c0-0.3,0.2-0.4,0.4-0.4
				C40.3,39.9,40.5,40.1,40.5,40.4z"/>
			<path fill="#E5E6E6" d="M40.5,42.4c0,0.2-0.2,0.4-0.4,0.4c-0.2,0-0.4-0.2-0.4-0.4s0.2-0.4,0.4-0.4C40.3,42,40.5,42.2,40.5,42.4z"
				/>
			<path fill="#E5E6E6" d="M40.5,44.5c0,0.3-0.2,0.4-0.4,0.4c-0.2,0-0.4-0.2-0.4-0.4c0-0.2,0.2-0.4,0.4-0.4
				C40.3,44.1,40.5,44.3,40.5,44.5z"/>
		</g>
		<g clip-path="url(#SVGID_2_)">
			<path fill="#E5E6E6" d="M44.4,36.2c0,0.2-0.2,0.4-0.4,0.4c-0.2,0-0.4-0.2-0.4-0.4c0-0.2,0.2-0.4,0.4-0.4
				C44.3,35.7,44.4,35.9,44.4,36.2z"/>
			<path fill="#E5E6E6" d="M44.4,38.2c0,0.3-0.2,0.4-0.4,0.4c-0.2,0-0.4-0.2-0.4-0.4c0-0.2,0.2-0.4,0.4-0.4
				C44.3,37.8,44.4,38,44.4,38.2z"/>
			<path fill="#E5E6E6" d="M44.4,40.4c0,0.2-0.2,0.4-0.4,0.4c-0.2,0-0.4-0.2-0.4-0.4c0-0.3,0.2-0.4,0.4-0.4
				C44.3,39.9,44.4,40.1,44.4,40.4z"/>
			<path fill="#E5E6E6" d="M44.4,42.4c0,0.2-0.2,0.4-0.4,0.4c-0.2,0-0.4-0.2-0.4-0.4S43.8,42,44,42C44.3,42,44.4,42.2,44.4,42.4z"/>
			<path fill="#E5E6E6" d="M44.4,44.5c0,0.3-0.2,0.4-0.4,0.4c-0.2,0-0.4-0.2-0.4-0.4c0-0.2,0.2-0.4,0.4-0.4
				C44.3,44.1,44.4,44.3,44.4,44.5z"/>
		</g>
		<g clip-path="url(#SVGID_2_)">
			<path fill="#E5E6E6" d="M48.4,36.2c0,0.2-0.2,0.4-0.4,0.4c-0.2,0-0.4-0.2-0.4-0.4c0-0.2,0.2-0.4,0.4-0.4
				C48.2,35.7,48.4,35.9,48.4,36.2z"/>
			<path fill="#E5E6E6" d="M48.4,38.2c0,0.3-0.2,0.4-0.4,0.4c-0.2,0-0.4-0.2-0.4-0.4c0-0.2,0.2-0.4,0.4-0.4
				C48.2,37.8,48.4,38,48.4,38.2z"/>
			<path fill="#E5E6E6" d="M48.4,40.4c0,0.2-0.2,0.4-0.4,0.4c-0.2,0-0.4-0.2-0.4-0.4c0-0.3,0.2-0.4,0.4-0.4
				C48.2,39.9,48.4,40.1,48.4,40.4z"/>
			<path fill="#E5E6E6" d="M48.4,42.4c0,0.2-0.2,0.4-0.4,0.4c-0.2,0-0.4-0.2-0.4-0.4s0.2-0.4,0.4-0.4C48.2,42,48.4,42.2,48.4,42.4z"
				/>
			<path fill="#E5E6E6" d="M48.4,44.5c0,0.3-0.2,0.4-0.4,0.4c-0.2,0-0.4-0.2-0.4-0.4c0-0.2,0.2-0.4,0.4-0.4
				C48.2,44.1,48.4,44.3,48.4,44.5z"/>
		</g>
		<g clip-path="url(#SVGID_2_)">
			<path fill="#E5E6E6" d="M52.3,36.2c0,0.2-0.2,0.4-0.4,0.4c-0.2,0-0.4-0.2-0.4-0.4c0-0.2,0.2-0.4,0.4-0.4
				C52.1,35.7,52.3,35.9,52.3,36.2z"/>
			<path fill="#E5E6E6" d="M52.3,38.2c0,0.3-0.2,0.4-0.4,0.4c-0.2,0-0.4-0.2-0.4-0.4c0-0.2,0.2-0.4,0.4-0.4
				C52.1,37.8,52.3,38,52.3,38.2z"/>
			<path fill="#E5E6E6" d="M52.3,40.4c0,0.2-0.2,0.4-0.4,0.4c-0.2,0-0.4-0.2-0.4-0.4c0-0.3,0.2-0.4,0.4-0.4
				C52.1,39.9,52.3,40.1,52.3,40.4z"/>
			<path fill="#E5E6E6" d="M52.3,42.4c0,0.2-0.2,0.4-0.4,0.4c-0.2,0-0.4-0.2-0.4-0.4s0.2-0.4,0.4-0.4C52.1,42,52.3,42.2,52.3,42.4z"
				/>
			<path fill="#E5E6E6" d="M52.3,44.5c0,0.3-0.2,0.4-0.4,0.4c-0.2,0-0.4-0.2-0.4-0.4c0-0.2,0.2-0.4,0.4-0.4
				C52.1,44.1,52.3,44.3,52.3,44.5z"/>
		</g>
		<g clip-path="url(#SVGID_2_)">
			<path fill="#E5E6E6" d="M56.2,36.2c0,0.2-0.2,0.4-0.4,0.4c-0.2,0-0.4-0.2-0.4-0.4c0-0.2,0.2-0.4,0.4-0.4
				C56,35.7,56.2,35.9,56.2,36.2z"/>
			<path fill="#E5E6E6" d="M56.2,38.2c0,0.3-0.2,0.4-0.4,0.4c-0.2,0-0.4-0.2-0.4-0.4c0-0.2,0.2-0.4,0.4-0.4
				C56,37.8,56.2,38,56.2,38.2z"/>
			<path fill="#E5E6E6" d="M56.2,40.4c0,0.2-0.2,0.4-0.4,0.4c-0.2,0-0.4-0.2-0.4-0.4c0-0.3,0.2-0.4,0.4-0.4
				C56,39.9,56.2,40.1,56.2,40.4z"/>
			<ellipse fill="#E5E6E6" cx="55.8" cy="42.4" rx="0.4" ry="0.4"/>
			<path fill="#E5E6E6" d="M56.2,44.5c0,0.3-0.2,0.4-0.4,0.4c-0.2,0-0.4-0.2-0.4-0.4c0-0.2,0.2-0.4,0.4-0.4
				C56,44.1,56.2,44.3,56.2,44.5z"/>
		</g>
		<g clip-path="url(#SVGID_2_)">
			<path fill="#E5E6E6" d="M54.3,36.2c0,0.2-0.2,0.4-0.4,0.4c-0.2,0-0.4-0.2-0.4-0.4c0-0.2,0.2-0.4,0.4-0.4
				C54.1,35.7,54.3,35.9,54.3,36.2z"/>
			<path fill="#E5E6E6" d="M54.3,38.2c0,0.3-0.2,0.4-0.4,0.4c-0.2,0-0.4-0.2-0.4-0.4c0-0.2,0.2-0.4,0.4-0.4
				C54.1,37.8,54.3,38,54.3,38.2z"/>
			<path fill="#E5E6E6" d="M54.3,40.4c0,0.2-0.2,0.4-0.4,0.4c-0.2,0-0.4-0.2-0.4-0.4c0-0.3,0.2-0.4,0.4-0.4
				C54.1,39.9,54.3,40.1,54.3,40.4z"/>
			<path fill="#E5E6E6" d="M54.3,42.4c0,0.2-0.2,0.4-0.4,0.4c-0.2,0-0.4-0.2-0.4-0.4s0.2-0.4,0.4-0.4C54.1,42,54.3,42.2,54.3,42.4z"
				/>
			<path fill="#E5E6E6" d="M54.3,44.5c0,0.3-0.2,0.4-0.4,0.4c-0.2,0-0.4-0.2-0.4-0.4c0-0.2,0.2-0.4,0.4-0.4
				C54.1,44.1,54.3,44.3,54.3,44.5z"/>
		</g>
	</g>
</g>
<g>
	<g>
		<path fill-rule="evenodd" clip-rule="evenodd" fill="#292933" d="M80.4,35.8l0,1.3c-0.9,0-1.6-0.1-2.1-0.1c-0.5,0-1,0-1.4,0
			c-0.3,0-0.7,0-1.2,0L73,37.1v-1.3c1.1,0,1.8-0.1,2.1-0.3c0.3-0.2,0.4-0.8,0.4-1.7v-7.5c0-0.9-0.1-1.5-0.4-1.7
			c-0.3-0.2-1-0.3-2.1-0.3v-1.4l2.6,0.1c0.5,0,0.9,0,1.2,0c0.4,0,0.9,0,1.4,0l2.1-0.1v1.4c-0.8,0-1.4,0.1-1.6,0.4
			c-0.3,0.2-0.4,0.7-0.4,1.6v2.8h5.7v-2.8c0-0.9-0.1-1.4-0.4-1.6c-0.3-0.2-0.8-0.3-1.6-0.3v-1.4l2.1,0.1c0.5,0,1,0,1.4,0
			c0.3,0,0.7,0,1.3,0l2.6-0.1v1.4c-1.1,0-1.8,0.1-2.1,0.3c-0.3,0.2-0.4,0.8-0.4,1.7v7.5c0,0.9,0.1,1.5,0.4,1.7
			c0.3,0.2,1,0.3,2.1,0.3v1.3L86.9,37l-1.3,0c-0.4,0-0.9,0-1.4,0c-0.5,0-1.2,0-2.1,0.1v-1.3c0.8,0,1.3-0.2,1.6-0.3
			c0.3-0.2,0.4-0.8,0.4-1.6v-3.3h-5.7v3.3c0,0.9,0.1,1.4,0.4,1.6C79,35.6,79.5,35.7,80.4,35.8z"/>
	</g>
	<g>
		<path fill-rule="evenodd" clip-rule="evenodd" fill="#292933" d="M104.3,30c0-2.1-0.3-3.6-0.9-4.6c-0.6-1-1.6-1.5-2.9-1.5
			s-2.3,0.5-2.9,1.5c-0.6,1-0.9,2.5-0.9,4.6c0,2,0.3,3.6,0.9,4.5c0.6,1,1.6,1.5,2.9,1.5c1.3,0,2.3-0.5,2.9-1.5
			C103.9,33.6,104.3,32.1,104.3,30z M93.6,30c0-2.4,0.6-4.2,1.8-5.5c1.2-1.3,2.9-1.9,5.1-1.9c2.2,0,3.9,0.6,5.1,1.9s1.8,3.1,1.8,5.5
			c0,2.4-0.6,4.3-1.8,5.6c-1.2,1.3-2.9,2-5.1,2c-2.2,0-3.9-0.7-5.1-2S93.6,32.4,93.6,30z"/>
	</g>
	<g>
		<path fill-rule="evenodd" clip-rule="evenodd" fill="#292933" d="M112,36.6v-3.7h2c0,1.2,0.3,2,0.7,2.5c0.4,0.5,1.2,0.8,2.2,0.8
			c1,0,1.7-0.2,2.2-0.6c0.5-0.4,0.8-1,0.8-1.8c0-0.3-0.1-0.6-0.2-0.9c-0.1-0.3-0.3-0.5-0.5-0.7c-0.4-0.4-1.4-0.9-2.8-1.3
			c-0.7-0.2-1.2-0.4-1.5-0.6c-1-0.4-1.8-0.9-2.3-1.5c-0.5-0.6-0.7-1.3-0.7-2.1c0-1.3,0.5-2.3,1.6-3c1-0.7,2.5-1.1,4.3-1.1
			c0.8,0,1.6,0.1,2.3,0.2c0.7,0.1,1.4,0.3,2,0.6v3.4h-2.1c0-1.1-0.2-1.8-0.6-2.3c-0.4-0.5-1-0.7-1.9-0.7c-0.9,0-1.5,0.2-2,0.6
			c-0.5,0.4-0.7,0.9-0.7,1.6c0,0.6,0.2,1.1,0.6,1.4c0.4,0.4,1.2,0.8,2.4,1.2l1.2,0.5c1.4,0.5,2.3,0.9,2.7,1.3
			c0.4,0.4,0.7,0.8,0.9,1.2c0.2,0.4,0.3,1,0.3,1.5c0,1.4-0.5,2.5-1.6,3.3c-1,0.8-2.5,1.2-4.5,1.2c-0.9,0-1.7-0.1-2.5-0.2
			S112.6,36.9,112,36.6z"/>
	</g>
	<g>
		<path fill-rule="evenodd" clip-rule="evenodd" fill="#292933" d="M127,22.9h13.9v4.5h-2l0-0.7l0-0.6c0-0.4,0-0.8-0.1-1
			c-0.1-0.2-0.1-0.4-0.3-0.5c-0.2-0.1-0.4-0.2-0.8-0.3c-0.3-0.1-0.9-0.1-1.5-0.1h-0.8v9.4c0,0.9,0.2,1.5,0.4,1.7
			c0.3,0.2,1,0.3,2.1,0.3v1.3c-1.1,0-2-0.1-2.6-0.1c-0.6,0-1.1,0-1.5,0c-0.5,0-1,0-1.6,0l-2.2,0.1l0-1.3c1.1,0,1.8-0.1,2.1-0.3
			c0.3-0.2,0.4-0.8,0.4-1.7v-9.4h-0.8c-0.7,0-1.3,0-1.6,0.1c-0.3,0-0.6,0.2-0.8,0.3c-0.1,0.1-0.2,0.3-0.3,0.5c0,0.2-0.1,0.6-0.1,1
			l0,0.6l0,0.7h-2V22.9z"/>
	</g>
	<g>
		<path fill-rule="evenodd" clip-rule="evenodd" fill="#292933" d="M165.5,22.9v1.4c-1.1,0-1.8,0.1-2.1,0.3
			c-0.3,0.2-0.4,0.8-0.4,1.7v7.5c0,0.9,0.1,1.5,0.4,1.7c0.3,0.2,1,0.3,2.1,0.3v1.3l-0.8,0c-1.9-0.1-3-0.1-3.3-0.1c-0.5,0-1,0-1.5,0
			c-0.5,0-1.1,0-1.8,0.1v-1.3c0.9,0,1.4-0.1,1.7-0.3c0.3-0.2,0.4-0.8,0.4-1.7v-9.4l-4.4,12.5h-2.1l-4.2-12.6v9.4
			c0,0.9,0.1,1.4,0.3,1.6c0.2,0.2,0.7,0.3,1.3,0.4v1.3c-0.6,0-1.2-0.1-1.7-0.1c-0.5,0-1,0-1.5,0c-0.6,0-1.1,0-1.6,0
			c-0.5,0-0.9,0-1.3,0.1l0-1.3c1.1,0,1.8-0.1,2.1-0.3c0.3-0.2,0.4-0.8,0.4-1.7v-7.5c0-0.9-0.1-1.5-0.4-1.7c-0.3-0.2-1-0.3-2.1-0.3
			v-1.4c0.4,0,0.8,0.1,1.3,0.1c0.5,0,1,0,1.6,0c0.5,0,1,0,1.5,0c0.5,0,1.1,0,1.8-0.1l3,8.6c0.2,0.6,0.4,1.1,0.5,1.6
			c0.2,0.5,0.3,1,0.4,1.4c0.2-0.7,0.3-1.2,0.5-1.7c0.1-0.5,0.3-0.9,0.4-1.3l3-8.6c0.5,0,1,0.1,1.4,0.1c0.5,0,0.9,0,1.3,0
			C162.2,23.1,163.4,23,165.5,22.9L165.5,22.9z"/>
	</g>
	<g>
		<path fill-rule="evenodd" clip-rule="evenodd" fill="#292933" d="M174.4,31.4h4.6l-2.3-6.5L174.4,31.4z M169.1,37.1v-1.3h0.1
			c1,0,1.8-0.8,2.4-2.3l0.1-0.2l3.8-10.6h2.8l4.2,11.1l0,0.1c0.5,1.3,1.3,2,2.4,2h0.2v1.3L183,37c-0.6,0-1.1,0-1.5,0
			c-0.5,0-1.1,0-1.6,0c-0.5,0-1.1,0-1.7,0.1l0-1.3h0c1.3,0,2-0.3,2-0.7c0-0.1,0-0.2,0-0.3c0-0.1-0.1-0.2-0.1-0.3l-0.6-1.8H174
			l-0.7,1.9c0,0.1-0.1,0.2-0.1,0.4c0,0.1,0,0.3,0,0.4c0,0.2,0.1,0.3,0.4,0.4c0.3,0.1,0.6,0.1,1.1,0.1h0.4l0,1.3
			c-0.9,0-1.5-0.1-2-0.1c-0.5,0-0.9,0-1.2,0c-0.3,0-0.7,0-1.2,0L169.1,37.1z"/>
	</g>
	<g>
		<path fill-rule="evenodd" clip-rule="evenodd" fill="#292933" d="M198.9,34.8l-3.9-5.1l3.3-3.8c0.3-0.3,0.5-0.5,0.6-0.7
			c0.1-0.2,0.2-0.3,0.2-0.4c0-0.2-0.1-0.3-0.2-0.3c-0.2-0.1-0.4-0.1-0.8-0.1l0-1.4l2,0.1c0.4,0,0.8,0,1,0c0.4,0,0.8,0,1.2,0
			c0.5,0,1,0,1.6-0.1v1.4h-0.3c-0.5,0-1,0.1-1.4,0.3c-0.4,0.2-1,0.7-1.7,1.5l-2.7,3l3.9,4.8c0.3,0.4,0.5,0.6,0.8,0.9
			c0.2,0.2,0.4,0.4,0.6,0.5c0.2,0.1,0.4,0.2,0.7,0.3c0.3,0.1,0.5,0.1,0.8,0.1h0.3l0,1.3l-2.1-0.1c-0.5,0-1,0-1.4,0
			c-0.4,0-0.8,0-1.4,0c-0.5,0-1.2,0-2.1,0.1v-1.3c0.5,0,0.9,0,1.1-0.1c0.2-0.1,0.3-0.2,0.3-0.3S199.1,35.1,198.9,34.8L198.9,34.8z
			 M196.7,22.9v1.4c-0.8,0-1.3,0.2-1.5,0.4c-0.2,0.2-0.4,0.7-0.4,1.6v7.5c0,0.9,0.1,1.4,0.4,1.6s0.8,0.3,1.5,0.4v1.3
			c-0.7,0-1.3-0.1-1.8-0.1c-0.6,0-1.1,0-1.6,0c-0.3,0-0.7,0-1.2,0l-2.6,0.1v-1.3c1.1,0,1.8-0.1,2.1-0.3c0.3-0.2,0.4-0.8,0.4-1.7
			v-7.5c0-0.9-0.1-1.5-0.4-1.7c-0.3-0.2-1-0.3-2.1-0.3v-1.4l2.6,0.1c0.5,0,1,0,1.2,0c0.5,0,1,0,1.5,0C195.4,23,196,23,196.7,22.9z"
			/>
	</g>
	<g>
		<path fill-rule="evenodd" clip-rule="evenodd" fill="#292933" d="M221.7,33.3v3.8h-13.2v-1.3c1.1,0,1.8-0.1,2.1-0.3
			c0.3-0.2,0.4-0.8,0.4-1.7v-7.5c0-0.9-0.1-1.5-0.4-1.7c-0.3-0.2-1-0.3-2.1-0.3v-1.4h12.9v3.6l-1.9,0l0-0.3v-0.4
			c0-0.7-0.1-1.1-0.5-1.3c-0.3-0.2-1.1-0.3-2.4-0.3h-2.8v4.9h0.7c1.1,0,1.9-0.1,2.2-0.3c0.3-0.2,0.5-0.6,0.5-1.2v-0.3l0-0.2h1.5v5.3
			l-1.5,0l0-0.2V32c0-0.6-0.1-1-0.5-1.2c-0.3-0.2-1-0.3-2.2-0.3h-0.7v5.2h3.2c1.3,0,2.1-0.1,2.4-0.3c0.3-0.2,0.5-0.7,0.5-1.3
			c0-0.1,0-0.4,0-0.7v-0.1H221.7z"/>
	</g>
	<g>
		<path fill-rule="evenodd" clip-rule="evenodd" fill="#292933" d="M232.4,29.3h1c1.1,0,2-0.2,2.5-0.6c0.5-0.4,0.8-1.1,0.8-1.9
			c0-0.8-0.3-1.4-0.8-1.8c-0.5-0.4-1.4-0.5-2.5-0.5h-1V29.3z M242,35.8v1.3h-3.8c-0.5-1.3-0.9-2.3-1.3-3.3c-0.4-0.9-0.7-1.5-0.9-1.9
			c-0.4-0.5-0.8-0.9-1.2-1.1c-0.5-0.2-1-0.3-1.7-0.3h-0.6v3.3c0,0.9,0.1,1.5,0.4,1.7c0.3,0.2,0.9,0.3,1.9,0.3v1.3l-2.5-0.1
			c-0.5,0-0.9,0-1.2,0l-1.1,0c-0.5,0-1.4,0-2.7,0.1v-1.3c1.1,0,1.8-0.1,2.1-0.3c0.3-0.2,0.4-0.8,0.4-1.7v-7.5c0-0.9-0.1-1.5-0.4-1.7
			c-0.3-0.2-1-0.3-2.1-0.3v-1.4h6.2c2.2,0,3.9,0.3,4.9,0.9c1,0.6,1.6,1.5,1.6,2.7c0,0.9-0.3,1.6-0.8,2.2c-0.6,0.6-1.4,1-2.5,1.2
			c0.7,0.1,1.2,0.3,1.5,0.6c0.4,0.3,0.7,0.8,1,1.6l1,2.3c0.3,0.6,0.5,1,0.7,1.1c0.2,0.2,0.6,0.2,1.1,0.2H242z"/>
	</g>
</g>
<path fill="none" d="M29.1,13.4c-0.1,0-0.3,0-0.4,0c0,0-3.3,0-3.3,1.4c0,0,0.2,3,1,4.7c0,0,0.4,1.5,2.5,1.7c0-0.4,0-0.7,0-1.1
	C28.7,17.9,28.8,15.6,29.1,13.4z"/>
<path fill="none" d="M59,20.1c0,0.4,0,0.8,0,1.2c0.2,0,0.3,0,0.3,0c2.3-0.2,2.7-1.8,2.7-1.8c0.8-1.7,1-4.7,1-4.7
	c0-1.4-3.3-1.4-3.3-1.4c-0.3,0-0.6,0-0.9,0C59.1,15.6,59.2,17.9,59,20.1z"/>
<path fill="#E5E6E6" d="M-2.4,57.1c-0.3-1.1-0.5-2.2-0.7-3.3C-2.9,54.9-2.7,56-2.4,57.1z"/>
<path fill="#E5E6E6" d="M9.5,43c6.8-2.2,9.2-6.8,9.2-6.8c0,0,0,0.1,0,0.1C14.2,23.8,22,12.8,22,12.8c-4.4,0.8-8,5.9-8,5.9
	c1.1-4.8,5.7-6.3,5.7-6.3c-6.3,0.2-8.9,6.7-8.9,6.7c0.3-4.1,4.8-6.7,4.8-6.7c-5.8,1.5-8.9,7.4-8.9,7.4c1.6-4.8,5-6.7,5-6.7
	S0.2,16.3-2.8,32c-0.6,3.2-1,6.3-1.1,9.1C-3.9,41.2,2.7,45.1,9.5,43z"/>
<path fill="#41464E" d="M15.6,70.4c1.9-3.8,4.4-7.1,7.4-9.9c2.5-3.4,4.1-7.6,5.3-11.3c-0.4-0.3-0.8-0.6-1.1-0.9c0,0,0,0-0.1-0.1
	c-0.4-0.3-0.8-0.7-1.1-1c-0.1-0.1-0.2-0.2-0.3-0.3c-0.3-0.3-0.6-0.6-0.9-0.9c-0.1-0.1-0.1-0.2-0.2-0.2c-0.3-0.4-0.7-0.7-1-1.1
	c0,0-0.1-0.1-0.1-0.1c-0.3-0.3-0.5-0.6-0.8-1c-0.1-0.1-0.2-0.2-0.2-0.3c-0.2-0.3-0.4-0.6-0.6-0.9c-0.1-0.1-0.1-0.1-0.2-0.2
	c-0.3-0.4-0.5-0.7-0.7-1.1c0-0.1-0.1-0.1-0.1-0.2c-0.2-0.3-0.4-0.6-0.5-0.9c-0.1-0.1-0.1-0.2-0.2-0.3c-0.2-0.3-0.3-0.6-0.5-1
	c0,0,0-0.1-0.1-0.1c-0.2-0.4-0.3-0.8-0.5-1.1c0,0,0-0.1,0-0.1c-0.1-0.3-0.3-0.7-0.4-1c0,0,0-0.1,0-0.1c0,0-2.3,4.6-9.2,6.8
	c-6.8,2.2-13.4-1.8-13.4-1.8l0,0c0,0,0,0,0,0.1C-4,42.4-4,43.6-4,44.7c0,0,0,0,0,0c0,3.3,0.3,6.3,0.9,9.1c0.2,1.1,0.5,2.2,0.7,3.3
	c0,0,0,0,0,0c0.2,0.9,0.5,1.8,0.8,2.6c0,0,0,0.1,0,0.1c0.3,0.8,0.6,1.6,0.9,2.4c0,0,0,0.1,0.1,0.1c0.3,0.8,0.7,1.6,1.1,2.3
	c0,0,0,0.1,0,0.1c1,2,2.1,3.8,3.4,5.5H15.6z"/>
<path fill="#41464E" d="M0.5,64.8c1,2,2.1,3.8,3.4,5.5h0C2.7,68.7,1.5,66.8,0.5,64.8z"/>
<path fill="#41464E" d="M-3.1,53.8C-3.7,51-4,48-4,44.7C-4,48-3.7,51-3.1,53.8z"/>
<path fill="#E5E6E6" d="M78.4,68.5c0.2,0.7,0.3,1.3,0.5,1.9h14.3c0.2-0.6,0.5-1.1,0.7-1.8l0,0c1.3-3.3,1.8-6.1,2-8.5l0.1-0.4l0,0.1
	c0.3-4.7-0.9-7.4-0.9-7.4s-1.9,8.1-4.4,9c0,0,4.8-7.8,3.1-12.6c0,0-1.9,6.4-4.1,7.7c0,0,4.6-6.3,1.6-12.5c0,0-0.9,7.5-3.4,8.4
	c0,0,3.2-6.1,1.7-10.8c0,0-3.8,8.8-12.4,13.8c0,0,0,0,0,0C77.1,55.3,76.4,59.6,78.4,68.5z"/>
<path fill="#41464E" d="M72.8,70.4h6.1c-0.2-0.6-0.4-1.2-0.5-1.9c-2-8.8-1.3-13.2-1.3-13.2c0,0,0,0,0,0c-0.4,0.2-0.7,0.4-1.1,0.6
	c-0.1,0-0.2,0.1-0.2,0.1c-0.4,0.2-0.7,0.3-1.1,0.5c-0.1,0-0.2,0.1-0.3,0.1c-0.4,0.2-0.8,0.3-1.2,0.4c-0.1,0-0.2,0.1-0.3,0.1
	c-0.4,0.1-0.8,0.3-1.2,0.4c-0.1,0-0.2,0-0.3,0.1c-0.4,0.1-0.8,0.2-1.2,0.3c-0.1,0-0.2,0-0.3,0.1c-0.4,0.1-0.9,0.2-1.3,0.2
	c-0.1,0-0.2,0-0.4,0c-0.5,0.1-0.9,0.1-1.4,0.1c-0.1,0-0.2,0-0.3,0c-0.5,0-1,0-1.5,0c0,0-0.1,0-0.1,0c-0.2,0-0.5,0-0.8,0
	c0.4,0.7,0.9,1.5,1.4,2.1C68.4,63.3,70.8,66.6,72.8,70.4z"/>
<polygon fill="#292933" points="44.5,69.9 44.2,70.4 44.5,70.4 "/>
<path fill="#292933" d="M59.7,54.8L50,70.4h22.8c-1.9-3.7-4.4-7-7.3-9.8c-0.5-0.7-0.9-1.4-1.4-2.1c-2.7-4.7-4.3-10.4-5.4-14
	l-1.6,8.9L59.7,54.8z"/>
<path fill="#292933" d="M15.6,70.4h23L29,55.1l2.6-1.5l-1.9-9.2c-0.4,1.4-0.9,3-1.5,4.8c-1.2,3.7-2.8,7.9-5.3,11.3
	C20,63.2,17.5,66.6,15.6,70.4z"/>
<polygon fill="#41464E" points="44.5,70.4 50,70.4 59.7,54.8 57.1,53.3 58.7,44.4 44.5,69.9 "/>
<polygon fill="#41464E" points="29,55.1 38.6,70.4 44.2,70.4 44.2,70.2 29.8,44.4 31.6,53.6 "/>
<path fill="#E5E6E6" d="M49.4,20.8c4.2,1.3,8.7,0.7,9.7,0.6c0-0.4,0-0.8,0-1.2c0.1-2.2,0.1-4.6-0.2-6.7c-7.3-0.3-10.8,0.9-10.8,0.9
	c-1.7,0.6-0.8,3-0.8,3C48.1,20.5,49.4,20.8,49.4,20.8z M53.5,15.1c1.8-0.1,3.2,1,3.3,2.3c0,1.3-1.4,2.5-3.1,2.5
	c-1.8,0.1-3.2-1-3.3-2.3C50.4,16.3,51.8,15.2,53.5,15.1z"/>
<path fill="#E5E6E6" d="M34.6,12.6c6.2,0.5,8,1.2,8,1.2s0.3,0.1,0.7,0.1c0.3,0.1,0.5,0.1,0.8,0.1c0.3,0,0.5,0,0.8-0.1
	c0.5,0,0.8-0.1,0.8-0.1s1.8-0.7,8-1.2c2.1,0,3.7,0,5,0c-0.3-1.7-0.7-3.2-1.4-4.5c-0.8-2.5-3.6-4-6.4-4.9c1.3,0,2.3,0,2.3,0
	c-3-2-5.6-1.9-7.6-1.2c-0.6-0.1-1.1-0.1-1.4-0.2c1.4-0.8,3-1.4,3-1.4c-4.7-1.2-8.6,1.4-10.4,2.8c-2.8,0.9-5.4,2.5-6.3,4.9
	c-0.7,1.3-1.1,2.9-1.4,4.5C30.5,12.6,32.3,12.6,34.6,12.6z"/>
<path fill="#E5E6E6" d="M39,20.8c0,0,1.3-0.3,2.1-3.5c0,0,0.8-2.4-0.8-3c0,0-3.7-1.2-11.3-0.8c-0.3,2.2-0.3,4.5-0.2,6.7
	c0,0.4,0,0.8,0,1.1c0.1,0,0.1,0,0.2,0C29,21.3,34.2,22.4,39,20.8z M30.9,17.6c-0.1-1.3,1.3-2.5,3.1-2.5c1.8-0.1,3.2,1,3.3,2.3
	c0,1.3-1.4,2.5-3.1,2.5C32.4,20,31,19,30.9,17.6z"/>
<path fill="#FFFFFF" d="M37.3,17.4c0-1.3-1.5-2.4-3.3-2.3c-1.8,0.1-3.2,1.2-3.1,2.5c0,1.4,1.5,2.4,3.3,2.3
	C35.9,19.9,37.3,18.8,37.3,17.4z M32.6,17.7c-0.1-0.8,0.4-1.6,1.3-1.7c0.8-0.1,1.6,0.5,1.7,1.3c0.1,0.8-0.4,1.6-1.3,1.7
	C33.5,19.1,32.7,18.5,32.6,17.7z"/>
<path fill="#292933" d="M35.5,17.3c-0.1-0.8-0.9-1.4-1.7-1.3c-0.8,0.1-1.4,0.9-1.3,1.7c0.1,0.8,0.9,1.4,1.7,1.3
	C35.1,18.9,35.7,18.1,35.5,17.3z"/>
<path fill="#FFFFFF" d="M53.7,20c1.8-0.1,3.2-1.2,3.1-2.5c-0.1-1.3-1.5-2.4-3.3-2.3c-1.8,0.1-3.1,1.2-3.1,2.5
	C50.5,19,51.9,20,53.7,20z M53.4,16c0.8-0.1,1.6,0.5,1.7,1.3c0.1,0.8-0.4,1.6-1.3,1.7c-0.8,0.1-1.6-0.5-1.7-1.3
	C52,16.9,52.6,16.1,53.4,16z"/>
<path fill="#292933" d="M53.8,19c0.8-0.1,1.4-0.9,1.3-1.7c-0.1-0.8-0.9-1.4-1.7-1.3c-0.8,0.1-1.4,0.9-1.3,1.7
	C52.3,18.5,53,19.1,53.8,19z"/>
<path fill="#292933" d="M36.2,22.2c0,0,3.2-0.1,4.2-1.4c0.8-1,1.9-3.9,1.9-3.9s0.2-0.4,0.7-0.7c0.5-0.3,1.2-0.3,1.2-0.3
	s0.7,0,1.3,0.3c0.4,0.3,0.7,0.8,0.7,0.8s1,2.9,1.8,3.9c1,1.3,4.2,1.4,4.2,1.4s3.7,0.4,7-0.1c0.8-0.1,1.5-0.3,2.1-0.5
	c0,0,1.3-0.3,2.1-2.8c0,0,0.6-2,1.1-2.2c0,0,0.2-0.3,0.3-0.4c0,0,0.5,0,0.4-1.8l0-0.6c0,0,0-0.5-0.9-0.6c-0.7-0.1-1.3-0.5-5.5-0.6
	c-1.3,0-2.9,0-5,0c-6.2,0.5-8,1.2-8,1.2S45.4,14,44.9,14c-0.3,0-0.5,0.1-0.8,0.1c-0.3,0-0.6,0-0.8-0.1c-0.4,0-0.7-0.1-0.7-0.1
	s-1.8-0.7-8-1.2c-2.3-0.1-4.1,0-5.4,0c-3.7,0.1-4.3,0.5-5,0.6c-0.9,0.1-0.9,0.6-0.9,0.6l0,0.6c-0.1,1.8,0.4,1.8,0.4,1.8
	c0.1,0.1,0.3,0.4,0.3,0.4c0.5,0.2,1.1,2.2,1.1,2.2c0.8,2.5,2.1,2.8,2.1,2.8c0.5,0.2,1.1,0.3,1.7,0.4C32.1,22.7,36.2,22.2,36.2,22.2z
	 M48.1,14.3c0,0,3.5-1.2,10.8-0.9c0.3,0,0.6,0,0.9,0c0,0,3.3,0,3.3,1.4c0,0-0.2,3-1,4.7c0,0-0.5,1.6-2.7,1.8c0,0-0.1,0-0.3,0
	c-1.1,0.2-5.5,0.8-9.7-0.6c0,0-1.3-0.3-2.1-3.5C47.2,17.3,46.4,14.9,48.1,14.3z M28.8,21.3c-2.1-0.3-2.5-1.7-2.5-1.7
	c-0.8-1.7-1-4.7-1-4.7c0-1.4,3.3-1.4,3.3-1.4c0.2,0,0.3,0,0.4,0c7.6-0.4,11.3,0.8,11.3,0.8c1.7,0.6,0.8,3,0.8,3
	c-0.9,3.2-2.1,3.5-2.1,3.5c-4.8,1.6-10,0.5-10,0.5C28.9,21.3,28.9,21.3,28.8,21.3z"/>
<path fill="#41464E" d="M49.3,24.2c0,0-3.8-0.7-5.3-3.4c-1.6,2.7-4.9,3.4-4.9,3.4c2.6,1.6,5.2,6.7,5.2,6.7S46.7,25.9,49.3,24.2z"/>
<path fill="#41464E" d="M44.5,47.9c-0.9,0-1.6,0.7-1.6,1.6c0,0.9,0.7,1.6,1.6,1.6c0.8,0,1.4-0.6,1.5-1.3c0-0.1,0-0.2,0-0.3
	s0-0.2,0-0.3C45.9,48.5,45.2,47.9,44.5,47.9z M44.5,49.9c-0.2,0-0.4-0.2-0.4-0.4c0-0.2,0.2-0.4,0.4-0.4c0.2,0,0.4,0.2,0.4,0.4
	C44.8,49.7,44.7,49.9,44.5,49.9z"/>
<path fill="#E5E6E6" d="M44.5,49.1c-0.2,0-0.4,0.2-0.4,0.4c0,0.2,0.2,0.4,0.4,0.4c0.2,0,0.4-0.2,0.4-0.4
	C44.8,49.3,44.7,49.1,44.5,49.1z"/>
<path fill="#41464E" d="M46,60.3c0-0.9-0.7-1.6-1.6-1.6c-0.9,0-1.6,0.7-1.6,1.6s0.7,1.6,1.6,1.6C45.3,61.9,46,61.2,46,60.3z
	 M44.1,60.3c0-0.2,0.2-0.4,0.4-0.4c0.2,0,0.4,0.2,0.4,0.4s-0.2,0.4-0.4,0.4C44.3,60.7,44.1,60.5,44.1,60.3z"/>
<path fill="#E5E6E6" d="M44.8,60.3c0-0.2-0.2-0.4-0.4-0.4c-0.2,0-0.4,0.2-0.4,0.4s0.2,0.4,0.4,0.4C44.7,60.7,44.8,60.5,44.8,60.3z"
	/>
</svg>
