<svg width="158" height="30" viewBox="0 0 158 30" xmlns="http://www.w3.org/2000/svg"><title>icon + reztoran</title><g fill="none" fill-rule="evenodd"><path d="M17.82 6.737V5h-.045c-1.38 0-2.498-1.11-2.498-2.5 0-1.38 1.126-2.5 2.498-2.5h3.482c1.38 0 2.498 1.11 2.498 2.5 0 1.38-1.126 2.5-2.498 2.5h-.045v1.74c7.426.636 14.395 5.344 14.395 12.427 0 1.31-1.027 2.5-2.38 2.5H5.767c-1.355 0-2.376-1.19-2.376-2.5 0-7.074 6.99-11.805 14.43-12.43zM0 27.5C0 26.12 1.125 25 2.5 25h34c1.38 0 2.5 1.11 2.5 2.5 0 1.38-1.127 2.5-2.5 2.5h-34C1.12 30 0 28.89 0 27.5z" fill="#F06"/><path d="M51.563 8.22c.78 0 1.486.1 2.12.302l-.603 1.7c-.438-.14-.86-.21-1.262-.21-1.172 0-2.176.412-3.012 1.238-.837.827-1.255 1.815-1.255 2.966v10.098h-1.864V8.68h1.865v2.083c.386-.74.956-1.347 1.712-1.826.756-.48 1.523-.718 2.3-.718zm11.85 1.79c-1.798 0-3.33.634-4.596 1.9-1.266 1.265-1.9 2.79-1.9 4.574 0 1.476.412 2.764 1.236 3.862l9.18-9.016c-1.164-.88-2.47-1.32-3.92-1.32zm-.12 14.765c-2.255 0-4.2-.81-5.838-2.432C55.818 20.723 55 18.77 55 16.483c0-2.284.82-4.233 2.46-5.846 1.643-1.612 3.63-2.418 5.966-2.418 2.336 0 4.326.81 5.972 2.437l.658.646L59.48 21.638c1.245.905 2.618 1.358 4.12 1.358 1.504 0 2.873-.536 4.107-1.608 1.235-1.073 1.973-2.4 2.215-3.98h1.865c-.224 2.09-1.132 3.84-2.724 5.252-1.593 1.41-3.516 2.115-5.77 2.115zm22.974-2.293v1.832H73.223l9.836-13.802H73.6V8.68h13.056L76.82 22.482h9.447zm4.066-12.88v11.034c0 .88.262 1.558.785 2.037.523.48 1.197.718 2.02.718h1.422v.924h-1.422c-1.065 0-1.955-.32-2.67-.956-.717-.637-1.074-1.53-1.074-2.682V9.603h-1.866V8.68h1.866V5.147h.94V8.68h4.226v.923h-4.227zm22.773 6.882c0 2.285-.823 4.238-2.47 5.86-1.645 1.62-3.636 2.43-5.97 2.43-2.336 0-4.33-.81-5.98-2.43-1.65-1.622-2.475-3.575-2.475-5.86s.826-4.234 2.477-5.847c1.65-1.612 3.643-2.418 5.978-2.418s4.326.805 5.972 2.417c1.646 1.613 2.47 3.562 2.47 5.847zm-.953.006c0-2.034-.733-3.768-2.2-5.2-1.468-1.433-3.237-2.15-5.308-2.15-2.07 0-3.834.722-5.287 2.163-1.454 1.44-2.18 3.173-2.18 5.194 0 2.02.726 3.753 2.18 5.194 1.453 1.442 3.216 2.163 5.287 2.163 2.07 0 3.84-.72 5.308-2.156 1.467-1.436 2.2-3.172 2.2-5.207zm4.644 7.824h-.94V8.68h.94v2.346c.492-.86 1.167-1.544 2.026-2.05.86-.505 1.82-.757 2.885-.757.474 0 .86.047 1.154.144l-.214.856c-.296-.052-.61-.08-.94-.08-1.36 0-2.518.474-3.476 1.418-.957.945-1.435 2.085-1.435 3.42v10.336zm24.25-15.634v15.634h-.927v-4.02c-.698 1.353-1.72 2.438-3.066 3.255-1.347.817-2.825 1.225-4.436 1.225-2.326 0-4.314-.81-5.965-2.432-1.65-1.62-2.476-3.574-2.476-5.86 0-2.284.826-4.233 2.476-5.846 1.65-1.612 3.64-2.418 5.965-2.418 1.61 0 3.09.41 4.436 1.23 1.346.823 2.368 1.906 3.066 3.25V8.68h.926zm-.927 7.81c0-2.034-.734-3.768-2.2-5.2-1.468-1.433-3.237-2.15-5.308-2.15-2.07 0-3.834.722-5.288 2.163-1.453 1.44-2.18 3.173-2.18 5.194 0 2.02.727 3.753 2.18 5.194 1.454 1.442 3.217 2.163 5.288 2.163 2.07 0 3.84-.72 5.307-2.156 1.466-1.436 2.2-3.172 2.2-5.207zm17.808 7.824h-.94V14.65c0-1.493-.554-2.784-1.664-3.874-1.11-1.09-2.464-1.635-4.066-1.635-1.6 0-2.997.586-4.187 1.755-1.19 1.168-1.783 2.583-1.783 4.244v9.174h-.94V8.68h.94v3.058c.608-1.063 1.447-1.916 2.516-2.557 1.07-.64 2.252-.96 3.55-.96 1.833 0 3.388.62 4.663 1.864 1.274 1.243 1.912 2.766 1.912 4.567v9.664z" fill="#1A1919"/></g></svg>